<?xml version="1.0" encoding="UTF-8" standalone="no"?>
<!-- Created with Inkscape (http://www.inkscape.org/) -->

<svg
   width="64"
   height="64"
   viewBox="0 0 16.933333 16.933334"
   version="1.1"
   id="svg16"
   inkscape:version="1.1.2 (0a00cf5339, 2022-02-04)"
   sodipodi:docname="favicon.svg"
   xmlns:inkscape="http://www.inkscape.org/namespaces/inkscape"
   xmlns:sodipodi="http://sodipodi.sourceforge.net/DTD/sodipodi-0.dtd"
   xmlns="http://www.w3.org/2000/svg"
   xmlns:svg="http://www.w3.org/2000/svg">
  <sodipodi:namedview
     id="namedview18"
     pagecolor="#ffffff"
     bordercolor="#666666"
     borderopacity="1.0"
     inkscape:pageshadow="2"
     inkscape:pageopacity="0.0"
     inkscape:pagecheckerboard="0"
     inkscape:document-units="mm"
     showgrid="false"
     units="px"
     inkscape:snap-page="false"
     inkscape:zoom="5.6568543"
     inkscape:cx="17.412504"
     inkscape:cy="33.057242"
     inkscape:window-width="1366"
     inkscape:window-height="740"
     inkscape:window-x="0"
     inkscape:window-y="0"
     inkscape:window-maximized="1"
     inkscape:current-layer="layer1" />
  <defs
     id="defs13" />
  <g
     inkscape:label="Layer 1"
     inkscape:groupmode="layer"
     id="layer1">
    <path
       id="Path_2196"
       class="st1"
       d="m 11.868949,5.834082 c 0.334651,-0.1115501 1.829424,-0.2454105 1.829424,0.6693016 0,0.2677205 -0.200791,0.4685111 -0.4462,0.4908211 -0.02231,0 -0.02231,0 -0.04462,0 -0.646991,0.02231 -0.37927,-0.7585417 -0.40158,-0.7585417 -1.539394,0 -0.914712,3.3241967 -0.870093,3.837327 0.02231,0.290032 -0.17848,0.535442 -0.468511,0.557752 -0.02231,0 -0.06694,0 -0.08924,0 -0.223101,0.02231 -0.423892,-0.111549 -0.490822,-0.33465 -0.111549,-0.3123405 -0.133861,-3.2795772 1.383223,-4.2612195 -0.42389,0 -1.650944,0.825472 -2.186386,2.4764158 0.04462,0.4015804 0.04462,0.8254711 0,1.2270521 -0.02231,0.4462016 -0.1338599,0.7362316 -0.5354411,0.7362316 -0.3346499,0 -0.5577502,-0.245411 -0.5131298,-0.7362316 C 9.1025102,8.8682483 9.4148485,6.3025931 8.5447569,5.9010122 7.6077353,6.2579731 8.0539367,9.5152401 8.0539367,9.7383404 8.0762477,10.07299 7.9870027,10.474572 7.496185,10.474572 c -0.5354411,0 -0.513131,-0.334652 -0.5354411,-0.7362316 0,-0.3346509 0.02231,-0.9370223 0.044621,-1.2270521 C 6.2691266,6.7711041 5.2205542,6.0348725 4.8189733,6.0348725 c 1.5170835,0.9816423 1.4724634,3.948879 1.3609131,4.2612195 -0.04462,0.223101 -0.2677206,0.356961 -0.4908211,0.33465 -0.2900307,0.02231 -0.5577514,-0.223101 -0.5577514,-0.51313 0,-0.02231 0,-0.04462 0,-0.06694 0.06693,-0.5131305 0.6693017,-3.8373275 -0.870092,-3.8373275 -0.02231,0 0.2454106,0.7585418 -0.4015809,0.7585418 -0.2677206,0.022313 -0.4685112,-0.1784774 -0.4908211,-0.4461981 0,-0.02231 0,-0.02231 0,-0.04462 0,-0.9147123 1.4947735,-0.803162 1.8294242,-0.6693017 C 5.9567859,6.0794909 6.6707075,6.9049627 7.0722885,7.8419849 7.2284587,6.8603404 7.8085201,5.7225278 8.5224419,5.5886675 9.2363631,5.7002176 9.7941134,6.8603404 9.9949037,7.8196726 10.374175,6.9718906 10.909617,6.280279 11.868949,5.834078 m -6.6260852,5.465966 c 0,0.267721 0.2007906,0.468511 0.4685112,0.468511 0.2677206,0 0.4685111,-0.20079 0.4685111,-0.468511 0,-0.267721 -0.2007905,-0.468512 -0.4685111,-0.468512 0,0 0,0 0,0 -0.2677206,0 -0.4685112,0.200791 -0.4685112,0.468512 m 1.7401841,-0.111551 c 0,0.267721 0.2007905,0.468512 0.4685111,0.468512 0.2677206,0 0.4685115,-0.200791 0.4685115,-0.468512 0,-0.267719 -0.2007909,-0.468509 -0.4685115,-0.468509 -0.2454106,0 -0.4685111,0.20079 -0.4685111,0.468509 0,0 0,0 0,0 m 2.1194549,-0.04462 c 0,0.26772 0.2231004,0.46851 0.46851,0.46851 0.2454106,0 0.4685122,-0.223099 0.4685122,-0.46851 0,-0.26772 -0.2007914,-0.468511 -0.4685122,-0.468511 -0.2677196,0 -0.46851,0.200791 -0.46851,0.468511 0,0 0,0 0,0 m 1.7848042,0.13386 c 0,0.267721 0.20079,0.468511 0.468511,0.468511 0.267721,0 0.468512,-0.20079 0.468512,-0.468511 0,-0.267721 -0.200791,-0.46851 -0.468512,-0.46851 0,0 0,0 0,0 -0.245411,0 -0.468511,0.200789 -0.468511,0.46851 0,0 0,0 0,0 m 2.342555,5.443652 c 0.02231,0 0.02231,0 0.04462,-0.02231 v 0 c 0.06694,0.08924 0.178481,0.133861 0.26772,0.133861 0.178481,0 0.312341,-0.111551 0.356961,-0.267721 2.431797,-0.334651 2.164076,-3.368818 3.034168,-3.524989 -0.468511,-0.04462 -0.758543,0.334651 -1.026263,0.847782 0.02231,-0.892401 -0.401581,-1.784805 -0.468511,-2.186385 -0.06693,-0.24541 0.267721,-0.42389 0.468511,-0.24541 0.13386,0.17848 0.156171,0.401581 0.06694,0.580061 0.17848,0.04462 0.37927,-0.356961 0.11155,-0.646991 -0.290031,-0.356961 -0.870092,-0.223102 -0.870092,0.2231 0.17848,1.070883 0.713921,1.985596 0.356961,2.811067 -0.04462,0.08925 -0.06694,0.15617 -0.08925,0.245411 0.33465,-1.450155 -1.606324,-3.346508 -1.650945,-3.948879 -0.06694,-0.401582 0.580061,-0.468512 0.245411,0.17848 0.200791,-0.02231 0.33465,-0.200791 0.33465,-0.401581 0,-0.02231 0,-0.02231 0,-0.04462 -0.02231,-0.178481 -0.17848,-0.312341 -0.35696,-0.290031 -0.17848,0.02231 -0.356961,0.15617 -0.40158,0.334649 -0.06694,0.26772 0.156169,0.847782 0.602371,1.517083 0.691611,0.981643 1.227053,2.141766 0.914711,2.900308 -0.20079,-1.338603 -1.271673,-1.227053 -1.829424,-2.141766 -0.401581,-0.64699 0.758542,-1.003952 0.356961,0.04462 0.557752,-0.111552 0.334651,-0.780852 -0.08925,-0.870093 -0.267721,-0.04462 -0.535442,0.15617 -0.580062,0.42389 -0.06693,0.245412 0.08924,0.713924 0.669302,1.182434 -0.959332,-0.06693 -1.517083,0.736232 -0.937022,1.093192 0,-1.182432 2.141765,-0.78085 2.186385,0.401581 -1.026261,-1.539393 -2.231005,0.13386 -1.293982,0.490822 0.200791,0.06693 0.42389,-0.02231 0.535441,-0.20079 0.02231,-0.02231 -0.446202,0.06693 -0.468511,-0.267721 0,-0.156171 0.133861,-0.26772 0.29003,-0.26772 0.356961,0.02231 0.803161,0.803161 -0.133861,1.427842 -0.06694,-0.08924 -0.17848,-0.133861 -0.290029,-0.133861 -0.178482,0 -0.334651,0.133861 -0.356962,0.312342 -1.584013,-0.178481 -1.249362,-2.811066 -1.249362,-3.748089 0.02231,-0.981643 -1.182433,-0.937022 -1.160124,-0.13386 0,0.736232 0.557752,3.368818 1.450154,3.837328 -1.249364,-0.11155 -2.097146,-1.940974 -2.097146,-3.881948 0,-0.758542 -0.6693012,-0.758542 -0.9147113,-0.401581 0,0 0,0 0,-0.02231 l -0.022311,0.02231 v 0 c -0.022312,0.02231 -0.044624,0.06694 -0.044624,0.08923 -0.1338602,0.26772 -0.4015809,0.780853 -0.6246812,1.338604 v 0.691612 c 0.022311,0.04462 0.022311,0.08924 0.022311,0.13386 0.1338604,0.468511 0.2231002,0.959332 0.2900305,1.450153 0.066926,0.513131 -0.2007906,0.646991 -0.3123411,0.669302 v 0.26772 c 0.8700918,-0.17848 0.5800617,-1.650943 0.1115505,-2.922616 0.1338603,-0.379271 0.3123411,-0.758543 0.5354413,-1.115503 0.1338598,1.227052 0.9593313,4.28353 4.0158103,4.038119 m -4.6851118,0.04462 v -0.26772 0 c -0.334643,-0.02231 -0.334643,-0.468507 -0.3123332,-0.669297 0.044623,-0.490821 0.1115506,-0.981642 0.2454109,-1.450154 0,0 0.022311,-0.06693 0.066934,-0.20079 0,0.02231 0,0.04462 0.022311,0.06694 v -0.691605 l -0.022311,0.02231 C 8.3439669,13.062546 8.0985569,12.571725 7.808526,12.125525 7.5631155,11.768563 6.8938139,11.790874 6.8938139,12.527104 c 0,1.940975 -0.847782,3.792709 -2.0971448,3.881951 0.892402,-0.468512 1.4501533,-3.101098 1.4501533,-3.83733 0.02231,-0.803162 -1.2047428,-0.847781 -1.1824327,0.13386 0.02231,0.937022 0.3346507,3.614228 -1.271673,3.748088 -0.02231,0 -0.02231,0 -0.04462,0 -0.02231,-0.178479 -0.1784804,-0.312339 -0.3569608,-0.312339 -0.1115503,0 -0.2007906,0.04462 -0.2900308,0.13386 C 2.164083,15.672822 2.610284,14.869661 2.9672448,14.84735 c 0.1561704,0 0.2677207,0.111551 0.2900307,0.267721 -0.04462,0.312341 -0.4908212,0.245411 -0.468511,0.26772 0.1115502,0.178482 0.3346507,0.245412 0.5354412,0.20079 0.9370158,-0.356968 -0.2677269,-2.030222 -1.2939894,-0.490829 0.04462,-1.182433 2.186385,-1.584014 2.186385,-0.401581 0.5800616,-0.334649 0.04462,-1.160121 -0.937022,-1.093191 0.5577512,-0.468512 0.7139216,-0.959334 0.6469914,-1.182433 -0.04462,-0.267721 -0.2900306,-0.468512 -0.5800613,-0.423891 -0.4238909,0.08924 -0.6469916,0.758542 -0.08924,0.870091 -0.3792708,-1.026262 0.780852,-0.691611 0.356961,-0.04462 -0.5577512,0.914711 -1.6286338,0.80316 -1.8294243,2.141764 -0.3123406,-0.780852 0.2231005,-1.940975 0.9147121,-2.900306 0.4685112,-0.669302 0.6693016,-1.227055 0.6023715,-1.517084 -0.06693,-0.17848 -0.2231005,-0.312341 -0.4015811,-0.334651 -0.1784803,0 -0.3346506,0.11155 -0.3569607,0.290031 -0.04462,0.20079 0.06693,0.379271 0.2677206,0.423891 0.02231,0 0.02231,0 0.044621,0 -0.3346508,-0.646992 0.3123408,-0.580062 0.2454106,-0.178481 -0.06693,0.602371 -1.9855945,2.498726 -1.6509439,3.948879 -0.02231,-0.04462 -0.044621,-0.15617 -0.08924,-0.24541 -0.3569608,-0.825473 0.1784803,-1.717874 0.3569608,-2.811067 0,-0.468512 -0.5800614,-0.580061 -0.87009199,-0.223101 -0.26772065,0.26772 -0.0669301,0.691611 0.11155025,0.646993 -0.0892402,-0.200791 -0.0446201,-0.423892 0.0669301,-0.580062 0.1115502,-0.111551 0.2900307,-0.111551 0.401581,0.02231 0.06693,0.06693 0.08924,0.156171 0.06693,0.223101 -0.06693,0.423891 -0.4908211,1.316293 -0.4685111,2.186384 C 0.75854389,13.397188 0.46851318,13.040227 2.1666667e-6,13.062537 0.87009407,13.218707 0.60237351,16.230564 3.0118589,16.587524 c 0.044621,0.156173 0.2007905,0.267721 0.3569609,0.267721 0.1115503,0 0.2231005,-0.04462 0.2900307,-0.13386 v 0 c 0.02231,0 0.044621,0 0.06693,0.02231 3.1680275,0.29003 3.9711891,-2.967238 4.1050494,-4.06043 0.2677203,0.35696 0.4685108,0.758541 0.6023711,1.182434 -0.468511,1.271673 -0.8700916,2.766445 0.1115506,2.900305 0,0 0,0 0,0 M 8.2993408,0.83663293 8.1431708,1.3051442 8.5447517,1.0151134 8.9463326,1.3051442 8.7901617,0.83663293 9.1917426,0.54660228 H 8.7009218 L 8.5447508,0.07808867 8.3885808,0.54659976 H 7.8754502 Z m 0,3.21264757 -0.15617,0.4685111 L 8.5447517,4.2277609 8.9463326,4.5177916 8.7901617,4.0492779 9.1917426,3.7592473 H 8.7009218 L 8.5447508,3.2907362 8.3885808,3.7592473 H 7.8754502 Z M 6.581467,1.0151108 6.4252967,1.4836219 6.8268776,1.1935914 7.2284584,1.4836219 7.0722881,1.0151108 7.473869,0.7250802 H 6.9830479 L 6.8268776,0.25656911 6.6707072,0.7250802 H 6.1575761 Z m 0,2.8779969 L 6.4252967,4.3616187 6.8268776,4.071588 7.2284584,4.3616187 7.0722881,3.8931077 7.473869,3.6030769 H 6.9830479 L 6.8268776,3.1345658 6.6707072,3.6030769 H 6.1575761 Z M 4.9974532,1.4390019 4.841283,1.9075129 5.2428638,1.6174823 5.6444449,1.9075129 5.4882744,1.4390019 5.8898555,1.1489713 H 5.3990343 L 5.2428638,0.68046006 5.0866936,1.1489713 H 4.5735623 Z m 0,2.0748348 L 4.841283,3.9823478 5.2428638,3.6923171 5.6444449,3.9823478 5.4882744,3.5138367 5.8898555,3.223806 H 5.3990343 L 5.2428638,2.755295 5.0866936,3.223806 H 4.5735623 Z M 9.9949037,1.0151108 9.8387336,1.4836219 10.240315,1.1935914 10.641897,1.4836219 10.485724,1.0151108 10.887307,0.7250802 H 10.396485 L 10.240315,0.25656911 10.084144,0.7250802 H 9.5710128 Z m 0,2.8779969 -0.1561701,0.468511 0.4015814,-0.2900307 0.401582,0.2900307 -0.156173,-0.468511 0.401583,-0.2900308 H 10.396485 L 10.240315,3.1345658 10.084144,3.6030769 H 9.5710128 Z M 11.578919,1.4390019 11.422748,1.9075129 11.82433,1.6174823 12.225909,1.9075129 12.06974,1.4390019 12.471321,1.1489713 H 11.9805 L 11.82433,0.68046006 11.668159,1.1489713 h -0.513131 z m 0,2.0748348 L 11.422748,3.9823478 11.82433,3.6923171 12.225909,3.9823478 12.06974,3.5138367 12.471321,3.223806 H 11.9805 L 11.82433,2.755295 11.668159,3.223806 H 11.155028 Z M 12.805972,2.4875743 12.649801,2.9560854 13.051382,2.6660547 13.452964,2.9560854 13.296792,2.4875743 13.698373,2.1975436 H 13.207552 L 13.051382,1.7290325 12.895211,2.1975436 H 12.38208 Z m -9.0355715,0 L 3.6142301,2.9560854 4.015811,2.6660547 4.417392,2.9560854 4.2612216,2.4875743 4.6628026,2.1975436 H 4.1719814 L 4.015811,1.7290325 3.8596406,2.1975436 H 3.3465095 Z"
       style="clip-rule:evenodd;fill:#005288;fill-rule:evenodd;stroke-width:0.2231;fill-opacity:1" />
  </g>
</svg>
